<?xml version="1.0" encoding="UTF-8" standalone="no"?>
<svg
   version="1.1"
   id="Layer_1"
   x="0px"
   y="0px"
   viewBox="0 0 1173.878 1675.797"
   enable-background="new 0 0 1173.878 1675.797"
   xml:space="preserve"
   xmlns="http://www.w3.org/2000/svg"
   xmlns:svg="http://www.w3.org/2000/svg"><defs
   id="defs9">

</defs>
<path
   d="m 387.0518,1248.732 c 7.175,-19.384 23.605,-38.93 35.61,-55.597 5.361,-7.443 12.293,-21.213 19.984,-26.211 18.923,-12.297 109.018,51.996 127.47,79.49 19.56,29.144 19.633,27.673 25.129,57.953 32.349,178.214 17.998,142.418 49.825,236.431 34.691,102.474 30.447,86.539 70.915,86.539 10.258,-0.017 21.008,2.93 31.278,-0.691 8.561,-3.02 11.002,-1.329 11.463,-10.035 0.605,-11.427 3.311,-22.565 0.72,-34.374 -0.844,-3.846 4.529,-9.361 3.897,-15.266 -1.732,-16.205 3.707,-30.783 -1.419,-46.947 -1.81,-33.225 -7.008,-66.317 -6.242,-99.659 1.868,-81.324 14.572,-115.657 8.117,-153.825 -0.618,-3.655 -0.994,-7.167 0.395,-10.591 0.777,-1.916 -0.966,-5.232 2.482,-5.638 2.923,-0.344 5.78,0.845 7.387,3.339 33.485,51.973 13.008,22.326 33.9,59.875 3.923,7.052 6.419,18.473 12.172,24.226 7.24,9.974 9.686,22.442 18.097,31.87 22.96,25.746 85.329,144.057 85.879,145.058 11.978,21.814 26.449,42.11 39.235,63.436 11.219,18.712 12.737,47.883 45.225,37.18 8.347,-2.75 41.15,7.171 48.01,-17.606 1.206,-4.358 -1.538,-10.242 -3.548,-14.977 -6.314,-14.875 -10.773,-30.436 -16.514,-45.513 -3.147,-8.264 -4.58,-17.849 -7.093,-26.753 -32.526,-115.211 -127.387,-371.081 -127.387,-371.081 -0.691,-7.58 -3.052,-14.859 -1.917,-22.79 1.112,-7.772 9.391,-13.827 13.984,-19.867 7.189,-9.453 14.229,-19.024 21.342,-28.535 53.214,-79.821 61.457,-61.325 83.186,-164.177 1.523,-7.208 6.244,-13.103 6.984,-20.347 2.589,-25.364 7.191,-25.463 11.726,-69.085 1.082,-10.405 6.417,-20.493 6.195,-31.295 -0.232,-11.26 4.733,-21.46 5.394,-32.474 5.071,-84.411 24.239,-65.555 -15.782,-219.146 -3.767,-14.459 -11.34,-27.576 -15.704,-41.831 -11.783,-38.538 -21.395,-79.325 -40.239,-115.127 -5.437,-10.33 3.349,-21.786 15.028,-22.689 19.453,-1.504 56.344,12.868 67.365,-4.381 2.208,-3.456 5.253,0.019 7.731,-1.44 9.024,-5.312 18.732,-1.375 28.121,-1.92 6.012,-0.349 20.889,8.738 33.472,-11.029 7.151,-11.232 -4.027,-7.858 -2.174,-12.669 0.483,-1.255 1.997,-1.346 2.526,-0.699 4.381,5.35 6.299,-0.686 8.341,-2.228 18.498,-13.974 6.362,-25.801 -1.91,-52.314 -2.876,-9.218 -11.194,-11.757 -17.562,-17.061 -9.589,-7.987 -20.621,-12.728 -31.533,-17.812 -29.055,-13.537 -31.873,-2.564 -49.114,-16.578 -6.541,-5.317 -13.49,-6.963 -10.155,-14.255 0.844,-1.845 1.756,-3.939 1.654,-5.868 -0.143,-2.713 2.146,-6.785 -0.113,-7.754 -8.951,-3.842 -10.836,2.511 -16.936,3.828 -4.913,1.061 -8.831,-2.876 -6.753,-7.023 7.78,-15.528 -6.171,-8.365 -9.492,-12.817 -3.355,3.913 -6.534,-0.266 -9.762,-0.431 -5.018,-0.257 -10.915,-8.25 -14.354,2.239 -0.046,0.139 -2.667,-0.034 -3.39,-0.757 -6.28,-6.275 20.752,-40.244 19.101,-62.541 -0.324,-4.372 2.932,-9.12 4.754,-13.461 5.017,-11.953 0.662,-24.386 5.741,-26.729 0.474,-0.219 0.965,-1.648 0.716,-2.003 -5.037,-7.191 -2.35,-17.573 -9.2,-23.731 -8.159,-7.336 -18.599,-5.044 -25.315,0.142 -8.253,6.374 -18.534,9.372 -25.738,17.051 -9.783,10.427 -20.399,20.127 -24.944,34.459 -7.076,22.31 -8.15,14.911 -19.146,64.659 -2.063,9.334 -3.345,19.471 -8.589,28.101 -3.539,5.825 -11.561,5.704 -15.413,-0.118 -6.607,-9.987 -14.64,-18.93 -20.375,-29.611 -6.545,-12.188 -13.284,-24.412 -22.743,-34.69 -13.244,-14.391 -12.471,-16.959 -16.899,-15.798 -4.391,1.151 -5.475,43.889 -6.869,55.772 -1.055,8.991 7.203,13.487 8.473,26.003 0.322,3.171 1.658,5.796 4.193,7.845 1.172,0.947 3.073,2.299 2.973,3.299 -0.899,8.937 16.848,16.407 5.864,32.696 -19.552,28.994 -23.749,18.621 -40.49,112.563 -12.078,67.775 -16.679,84.139 5.022,274.913 1.977,17.378 -4.401,31.964 -8.258,31.542 -6.98,-0.763 -14.488,2.776 -20.919,-1.759 -9.284,-6.547 -86.42,-9.9 -107.536,-6.397 -32.875,5.455 -75.171,-8.897 -98.623,-2.85 -7.336,1.891 -14.377,0.78 -21.485,2.012 -43.533,7.548 -70.433,8.543 -102.541,6.045 -72.39,-5.632 -60.549,1.808 -86.865,-7.825 -2.891,-1.058 -29.266,-2.722 -39.048,-0.425 -11.662,2.738 -23.796,0.295 -35.043,4.805 -1.844,0.74 -4.041,0.822 -6.076,0.827 -33.387,0.076 -56.24,18.773 -81.264,15.353 -24.306,-3.322 -18.858,-7.519 -54.648,-6.931 -20.457,0.336 -38.745,8.85 -57.215,16.38 -5.754,2.346 -8.26,8.832 -14.306,11.414 -8.132,3.474 -11.247,12.321 -16.923,18.196 -13.313,13.782 -11.784,30.138 -11.865,46.524 -0.051,10.392 8.955,20.962 19.169,22.707 4.552,0.778 3.232,3.849 3.379,6.401 3.668,63.644 1.206,24.759 9.761,73.278 0.87,4.935 3.904,10.451 6.417,14.82 19.065,33.146 47.624,147.387 54.828,179.436 11.144,49.578 33.472,111.341 21.591,162.361 -7.718,33.146 -24.584,77.379 -48.768,101.143 -15.177,14.913 -20.702,49.682 -13.092,67.434 7.715,17.996 20.839,28.919 34.49,39.659 6.388,5.026 12.16,11.383 19.68,15.707 4.011,2.306 9.615,8.422 11.305,15.675 5.461,23.436 25.808,44.112 39.411,63.286 8.943,12.605 13.709,25.993 19.081,40.212 3.551,9.4 11.403,16.311 13.224,26.791 1.786,10.269 18.916,27.065 25.826,34.521 17.657,19.053 26.342,32.229 46.837,26.282 16.569,-4.809 37.736,4.013 40.402,-28.46 1.186,-14.46 -8.442,-22.434 -14.689,-33.909 -5.265,-9.67 -6.51,-22.157 -10.398,-32.9 -11.12,-30.723 -18.59,-64.092 -31.832,-93.71 -7.919,-17.713 -18.454,-34.326 -23.761,-53.132 -14.394,-51.011 3.913,-42.898 0.97,-64.33 -1.702,-12.396 1.071,-28.633 4.345,-28.918 2.489,-0.217 4.446,1.593 5.385,3.758 2.131,4.913 5.147,9.863 5.595,14.992 1.44,16.467 15.911,36.585 23.055,51.301 10.644,26.611 115.08,219.999 115.615,221.006 6.996,13.16 21.979,41.298 37.785,40.937 61.252,-1.396 73.69,0.035 77.676,-3.793 15.172,-14.607 -15.043,-64.147 -20.833,-76.361 -7.769,-16.385 -13.016,-33.908 -21.249,-50.242 -16.598,-32.93 -36.471,-64.14 -51.909,-97.666 -0.237,-0.515 -35.773,-83.065 -35.773,-83.065 -4.972,-10.909 -5.302,-23.624 -13.584,-33.217 -3.291,-3.813 -3.029,-10.318 -0.598,-13.149 5.894,-6.868 7.911,-18.502 11.012,-26.888 z m 209.081,38.402 c -0.011,0.862 -0.022,1.724 -0.034,2.585 -0.344,-0.115 -0.935,-0.161 -0.99,-0.358 -0.294,-1.04 0.16,-1.756 1.198,-2.086 0.168,-0.884 -0.258,-2.054 1.055,-2.366 0.136,-0.032 0.625,0.644 0.638,1.003 0.049,1.366 -0.79,1.531 -1.867,1.222 z M 31.6828,740.215 c 0.35,-0.706 0.122,-0.6 0.882,-0.404 -0.162,0.285 -0.324,0.569 -0.486,0.854 -0.132,-0.15 -0.264,-0.3 -0.396,-0.45 z m 24.125,33.469 -0.6,-0.236 0.588,-0.258 z m 912.403,563.624 c 0.9,1.532 0.886,0.908 0.051,2.394 -0.897,-1.451 -0.883,-0.827 -0.051,-2.394 z m -534.913,236.486 0.276,0.417 -0.444,0.054 z m 569.406,21.927 -0.516,0.31 -0.048,-0.519 z"
   id="path2"
   style="fill:#6a00ff;fill-opacity:1" />
</svg>
