<?xml version="1.0" standalone="no"?>
<!DOCTYPE svg PUBLIC "-//W3C//DTD SVG 20010904//EN"
 "http://www.w3.org/TR/2001/REC-SVG-20010904/DTD/svg10.dtd">
<svg version="1.0" xmlns="http://www.w3.org/2000/svg"
 width="1676.000000pt" height="1676.000000pt" viewBox="0 0 1676.000000 1676.000000"
 preserveAspectRatio="xMidYMid meet">
<metadata>
Created by potrace 1.14, written by Peter Selinger 2001-2017
</metadata>
<g transform="translate(0.000000,1676.000000) scale(0.100000,-0.100000)"
fill="#000000" stroke="none">
<path d="M12215 16368 c-16 -6 -43 -20 -60 -33 -16 -12 -73 -47 -125 -77 -129
-76 -290 -241 -350 -359 -67 -131 -206 -585 -237 -774 -17 -106 -67 -236 -101
-262 -21 -15 -64 -17 -94 -2 -21 9 -191 238 -228 306 -102 188 -161 279 -231
358 -29 33 -62 71 -73 84 -12 13 -33 39 -49 57 -60 71 -83 20 -102 -231 -26
-342 -26 -348 11 -415 17 -30 39 -87 48 -127 13 -53 25 -78 47 -97 16 -14 29
-33 29 -41 0 -19 34 -88 53 -106 20 -22 39 -75 39 -112 0 -49 -20 -86 -117
-216 -72 -97 -102 -148 -145 -241 -21 -45 -88 -307 -114 -440 -2 -14 -11 -61
-20 -105 -9 -44 -25 -129 -36 -190 -11 -60 -22 -119 -24 -130 -7 -36 -19 -110
-21 -125 -1 -8 -10 -62 -19 -120 -21 -131 -23 -152 -33 -275 -14 -177 -7 -636
12 -835 2 -19 6 -75 9 -125 4 -49 9 -106 11 -125 2 -19 7 -69 10 -110 3 -41 8
-91 10 -110 2 -19 7 -64 10 -100 4 -36 8 -78 10 -95 2 -16 7 -64 11 -105 3
-41 7 -82 9 -90 2 -8 6 -44 9 -80 4 -36 9 -81 11 -100 2 -19 6 -57 9 -85 3
-27 9 -75 13 -105 14 -107 7 -241 -16 -302 -12 -31 -28 -62 -36 -68 -8 -7 -51
-14 -97 -16 -67 -4 -91 -1 -129 15 -80 35 -203 55 -424 69 -168 10 -585 9
-675 -2 -116 -15 -275 -11 -435 9 -16 2 -61 7 -100 11 -38 3 -74 9 -79 11 -17
11 -302 13 -336 3 -19 -6 -71 -12 -115 -15 -67 -5 -183 -19 -245 -30 -8 -1
-55 -8 -105 -15 -49 -6 -101 -14 -115 -16 -144 -24 -554 -23 -815 1 -22 2
-146 6 -275 9 -281 8 -311 10 -392 37 -35 12 -81 24 -103 27 -53 9 -322 8
-360 -1 -16 -4 -64 -9 -105 -12 -41 -3 -100 -8 -130 -11 -30 -3 -55 -5 -55 -3
0 1 -11 -3 -23 -10 -13 -7 -42 -14 -65 -16 -23 -2 -72 -6 -109 -10 -81 -6
-173 -26 -293 -64 -336 -105 -376 -108 -630 -44 -81 20 -127 25 -252 27 -78 2
-168 -1 -200 -5 -85 -12 -221 -53 -367 -112 -98 -40 -138 -62 -170 -92 -22
-23 -63 -55 -91 -73 -27 -18 -63 -49 -78 -70 -15 -20 -54 -69 -85 -109 -59
-75 -97 -156 -108 -233 -3 -25 -6 -97 -6 -160 -1 -124 10 -161 64 -221 27 -32
86 -69 109 -69 8 0 23 -6 32 -12 18 -14 20 -27 32 -263 8 -158 13 -196 35
-285 17 -70 33 -148 44 -213 8 -48 17 -70 86 -212 158 -323 289 -763 584
-1965 138 -563 126 -509 146 -620 6 -30 12 -64 14 -75 2 -11 7 -45 11 -75 4
-30 9 -64 11 -75 17 -91 19 -349 4 -458 -21 -145 -111 -451 -177 -597 -109
-243 -182 -362 -312 -509 -94 -106 -138 -192 -166 -327 -60 -288 21 -484 290
-709 83 -69 144 -120 203 -169 24 -20 48 -36 52 -36 5 0 26 -17 47 -39 40 -39
83 -116 83 -149 0 -10 5 -23 12 -30 7 -7 9 -12 6 -12 -11 0 31 -89 80 -170 25
-41 100 -147 167 -235 171 -225 207 -286 285 -486 22 -56 64 -145 94 -198 30
-53 60 -116 66 -141 21 -83 63 -141 223 -315 170 -184 250 -261 295 -284 55
-28 128 -37 185 -23 24 6 86 16 137 22 140 16 177 28 220 71 65 66 92 224 54
319 -10 25 -42 82 -71 127 -67 103 -87 147 -117 264 -14 52 -48 164 -76 249
-29 85 -54 164 -56 175 -2 11 -8 31 -13 45 -5 14 -28 86 -51 160 -81 264 -136
403 -255 645 -95 194 -129 275 -151 360 -42 162 -53 225 -50 315 2 70 7 96 30
145 27 57 29 67 31 220 2 195 18 250 65 238 24 -6 85 -143 94 -207 10 -80 72
-218 178 -399 15 -26 28 -50 28 -53 0 -3 58 -122 129 -264 150 -299 230 -453
446 -860 200 -376 259 -488 288 -540 35 -65 87 -163 146 -275 24 -44 53 -98
65 -120 12 -22 48 -89 81 -150 130 -244 222 -369 311 -421 42 -25 46 -25 241
-24 305 2 523 8 571 15 35 5 47 13 68 45 59 90 16 258 -155 605 -60 121 -121
252 -136 290 -14 39 -30 79 -35 90 -5 11 -26 61 -46 110 -40 98 -131 278 -244
480 -40 72 -88 159 -108 195 -20 36 -48 88 -64 115 -42 75 -172 341 -203 415
-15 36 -35 83 -45 105 -10 22 -30 69 -45 105 -15 36 -35 83 -45 105 -152 345
-204 474 -240 590 -18 54 -48 123 -67 153 -49 74 -50 101 -8 177 20 35 53 114
74 177 62 181 125 289 321 548 31 41 77 107 101 145 49 78 58 91 112 151 58
64 100 72 217 38 228 -66 690 -371 964 -638 79 -77 126 -134 196 -239 100
-151 140 -235 163 -342 16 -74 52 -266 61 -325 6 -38 7 -43 36 -200 11 -58 22
-121 24 -140 4 -28 55 -336 81 -492 17 -100 22 -131 29 -188 3 -25 8 -56 11
-70 7 -35 46 -269 51 -304 12 -87 151 -565 211 -726 3 -8 45 -130 93 -270 143
-416 200 -547 269 -618 45 -46 85 -58 176 -54 28 1 113 2 190 1 77 0 169 -1
205 -2 62 0 203 34 214 52 20 32 38 316 25 380 -6 24 -2 49 12 85 17 43 20 84
25 268 3 133 1 232 -5 255 -6 21 -13 76 -16 123 -3 47 -7 101 -10 120 -2 19
-7 73 -11 120 -4 47 -8 96 -9 110 -1 14 -6 70 -10 125 -4 55 -9 116 -11 135
-5 42 -5 431 0 515 8 136 17 272 21 295 2 14 6 57 10 95 3 39 8 86 10 105 2
19 7 64 10 100 3 36 8 76 10 90 2 14 7 54 11 89 3 35 8 82 10 105 10 95 10
319 0 397 -16 119 -10 194 16 210 17 11 48 2 69 -20 17 -16 209 -318 209 -328
0 -5 128 -262 149 -299 6 -11 24 -52 41 -93 17 -41 46 -97 66 -124 19 -27 59
-97 88 -155 30 -62 87 -154 137 -219 132 -176 321 -487 589 -973 99 -181 128
-233 223 -411 39 -74 140 -239 302 -494 59 -93 123 -204 142 -245 100 -216
124 -254 186 -286 43 -21 129 -25 186 -8 29 8 94 13 176 13 141 0 200 12 257
52 41 29 54 45 74 89 19 45 13 86 -27 186 -17 43 -58 156 -90 249 -33 94 -63
177 -68 186 -5 8 -23 73 -41 145 -31 122 -72 267 -155 539 -67 221 -372 1129
-510 1520 -31 88 -63 178 -70 200 -7 22 -34 99 -60 170 -26 72 -51 141 -55
155 -5 14 -25 70 -45 125 -21 55 -43 118 -50 140 -8 22 -30 85 -50 140 -41
114 -59 163 -144 400 -34 94 -68 186 -75 205 -35 86 -95 258 -101 290 -3 19
-9 71 -12 115 -7 96 7 131 85 216 58 63 247 314 347 461 64 94 194 271 251
343 14 17 28 35 32 40 4 6 28 37 53 70 177 232 255 405 348 778 22 86 42 171
45 187 3 17 9 45 12 63 8 41 31 110 55 164 10 23 26 87 34 142 8 56 26 148 39
204 25 108 52 266 62 364 3 32 19 114 35 183 17 69 32 156 34 193 6 80 11 111
30 187 16 64 23 109 30 200 5 69 17 195 20 220 11 85 19 142 42 290 35 230 22
523 -37 820 -11 52 -21 107 -24 123 -3 15 -7 35 -10 45 -3 9 -7 28 -10 42 -2
14 -10 48 -16 75 -6 28 -13 59 -16 70 -29 150 -134 523 -176 625 -76 189 -113
296 -154 450 -41 155 -160 523 -211 655 -20 50 -60 141 -89 204 -63 133 -68
175 -29 231 14 20 46 47 71 59 41 21 55 23 142 17 53 -3 124 -10 157 -15 115
-18 160 -23 220 -22 109 2 154 17 206 67 24 24 42 33 59 31 13 -2 36 3 52 10
33 17 128 20 253 7 207 -20 245 -10 322 84 48 59 57 104 23 122 -21 11 -28 40
-10 40 6 0 19 -5 30 -12 16 -11 26 -6 73 37 82 75 105 139 82 225 -15 55 -100
282 -123 329 -26 52 -243 208 -377 270 -127 60 -181 82 -233 98 -59 17 -64 18
-147 28 -27 3 -66 10 -86 15 -40 11 -200 119 -222 151 -14 19 -13 52 3 74 4 6
10 34 14 64 5 40 4 56 -6 62 -25 16 -73 9 -123 -18 -57 -29 -99 -27 -110 7 -3
10 1 43 10 71 8 29 12 56 8 60 -15 14 -122 36 -131 27 -5 -5 -45 4 -92 21 -89
31 -113 30 -125 -9 -3 -11 -10 -20 -15 -20 -18 0 -40 33 -35 51 3 10 8 29 11
42 4 12 27 65 51 117 104 221 132 304 138 404 2 41 12 83 30 121 30 66 45 135
45 209 0 34 7 61 20 81 12 18 16 33 10 40 -5 6 -18 48 -29 93 -11 44 -27 95
-37 112 -35 58 -132 85 -209 58z m-3725 -12468 c0 -5 -5 -10 -11 -10 -5 0 -7
5 -4 10 3 6 8 10 11 10 2 0 4 -4 4 -10z"/>
</g>
</svg>
